<svg id="Capa_1" enable-background="new 0 0 512 512" height="512" viewBox="0 0 512 512" width="512" xmlns="http://www.w3.org/2000/svg"><g><g><path d="m499.711 436.303h-40.301v-227.486l34.762-23.498c3.177-2.149 4.85-5.923 4.307-9.719-.543-3.797-3.205-6.951-6.858-8.123l-25.98-8.334c2.693-9.524 5.96-18.906 9.753-27.993 8.404-20.132 19.504-39.16 32.991-56.554 2.673-3.447 2.809-8.228.336-11.821s-6.986-5.174-11.162-3.907c-13.479 4.089-26.219 9.675-38.149 16.69v-5.601c0-38.574-31.378-69.957-69.946-69.957h-327.65s0 0-.001 0 0 0-.001 0c-33.249 0-60.299 29.463-60.299 65.677 0 5.533 4.486 10.02 10.02 10.02h90.54v370.626c0 36.214 27.05 65.677 60.299 65.677h287.062c33.249 0 60.298-29.463 60.298-65.677-.001-5.533-4.487-10.02-10.021-10.02zm-42.81-312.873c-5.387 12.907-9.794 26.363-13.098 39.994-1.237 5.104 1.677 10.296 6.677 11.901l15.39 4.936-21.946 14.835c-.09.059-.178.118-.266.18l-67.081 45.345c2.955-14.767 8.298-35.48 17.705-57.372 10.416-24.238 23.685-45.02 39.438-61.768 11.796-12.541 25.044-22.847 39.596-30.828-6.221 10.551-11.708 21.503-16.415 32.777zm-395.089-103.391s.001 0 0 0h.001c19.161 0 35.228 15.259 39.269 35.618h-78.553c4.039-20.362 20.119-35.618 39.283-35.618zm140.819 426.284c0 25.164-18.061 45.638-40.26 45.638s-40.26-20.474-40.26-45.638v-380.635c0-.003 0-.006 0-.01 0-17.714-6.473-33.813-16.976-45.639h284.328c27.519 0 49.907 22.393 49.907 49.918v19.344c-26.462 20.907-47.968 49.896-63.499 86.036-17.498 40.72-21.83 77.081-22.552 84.354l-12.943 38.828c-1.75 5.25 1.088 10.924 6.338 12.674 1.051.35 2.119.517 3.169.517 4.196 0 8.105-2.656 9.505-6.854l12.231-36.695 67.751-45.798v213.94h-226.72c-5.534 0-10.019 4.487-10.019 10.02zm246.762 45.638h-243.7c8.484-9.551 14.338-21.892 16.275-35.618h266.745c-4.038 20.361-20.122 35.618-39.32 35.618z"/><path d="m178.544 109.668h129.573c5.533 0 10.02-4.486 10.02-10.02 0-5.533-4.486-10.02-10.02-10.02h-129.573c-5.534 0-10.02 4.486-10.02 10.02.001 5.534 4.487 10.02 10.02 10.02z"/><path d="m178.544 160.797h129.573c5.533 0 10.02-4.486 10.02-10.02 0-5.533-4.486-10.02-10.02-10.02h-129.573c-5.534 0-10.02 4.486-10.02 10.02.001 5.534 4.487 10.02 10.02 10.02z"/><path d="m178.544 211.926h129.573c5.533 0 10.02-4.486 10.02-10.02s-4.486-10.02-10.02-10.02h-129.573c-5.534 0-10.02 4.486-10.02 10.02s4.487 10.02 10.02 10.02z"/><path d="m178.544 263.055h129.573c5.533 0 10.02-4.486 10.02-10.02 0-5.533-4.486-10.02-10.02-10.02h-129.573c-5.534 0-10.02 4.486-10.02 10.02.001 5.533 4.487 10.02 10.02 10.02z"/><path d="m283.068 304.164c0-5.533-4.486-10.02-10.02-10.02h-94.504c-5.534 0-10.02 4.486-10.02 10.02 0 5.533 4.486 10.02 10.02 10.02h94.504c5.534 0 10.02-4.486 10.02-10.02z"/><path d="m366.25 419.244c24.063 0 43.639-19.576 43.639-43.639s-19.576-43.639-43.639-43.639-43.639 19.576-43.639 43.639 19.577 43.639 43.639 43.639zm0-67.239c13.013 0 23.6 10.587 23.6 23.6s-10.587 23.6-23.6 23.6-23.6-10.587-23.6-23.6 10.588-23.6 23.6-23.6z"/><circle cx="308.118" cy="304.164" r="10"/></g></g></svg>