<svg id="Capa_1" enable-background="new 0 0 512 512" height="512" viewBox="0 0 512 512" width="512" xmlns="http://www.w3.org/2000/svg"><g><g><path d="m449.95 202.21c4.143 0 7.5-3.358 7.5-7.5v-26.165h6.644c4.143 0 7.5-3.358 7.5-7.5v-24.825h32.906c4.143 0 7.5-3.358 7.5-7.5v-56.57c0-3.415-2.307-6.398-5.611-7.258l-248.5-64.65c-1.238-.322-2.539-.322-3.777 0l-248.5 64.65c-3.305.86-5.612 3.843-5.612 7.258v56.569c0 4.142 3.357 7.5 7.5 7.5h32.906v24.825c0 4.142 3.357 7.5 7.5 7.5h6.643v231.479h-6.643c-4.143 0-7.5 3.358-7.5 7.5v24.825h-12.703c-4.143 0-7.5 3.358-7.5 7.5v24.825h-12.703c-4.143 0-7.5 3.358-7.5 7.5v32.327c0 4.142 3.357 7.5 7.5 7.5h497c4.143 0 7.5-3.358 7.5-7.5v-32.325c0-4.142-3.357-7.5-7.5-7.5h-12.703v-24.825c0-4.142-3.357-7.5-7.5-7.5h-12.703v-24.825c0-4.142-3.357-7.5-7.5-7.5h-6.644v-170.315c0-4.142-3.357-7.5-7.5-7.5s-7.5 3.358-7.5 7.5v170.314h-53.69v-231.479h53.69v26.165c0 4.142 3.358 7.5 7.5 7.5zm6.644-48.665h-81.976v-17.325h81.976zm-441.594-75.596 241-62.699 241 62.699v43.271h-482zm281.988 75.596h-81.977v-17.325h81.977zm-159.606-17.325v17.325h-81.976v-17.325zm-67.833 32.325h53.691v58.325c0 4.142 3.357 7.5 7.5 7.5s7.5-3.358 7.5-7.5v-58.325h6.642c4.143 0 7.5-3.358 7.5-7.5v-24.825h47.63v24.825c0 4.142 3.357 7.5 7.5 7.5h6.643v231.479h-6.643c-4.143 0-7.5 3.358-7.5 7.5v24.825h-47.63v-24.825c0-4.142-3.357-7.5-7.5-7.5h-6.642v-138.154c0-4.142-3.357-7.5-7.5-7.5s-7.5 3.358-7.5 7.5v138.154h-53.691zm227.439 246.479v17.325h-81.977v-17.325zm-241.582 0h81.976v17.325h-81.976zm441.594 81.976h-482v-17.325h482zm-20.203-32.325h-441.594v-17.325h441.594zm-102.179-32.325v-17.325h81.976v17.325zm-.858-32.326h-6.642c-4.143 0-7.5 3.358-7.5 7.5v24.825h-47.63v-24.825c0-4.142-3.357-7.5-7.5-7.5h-6.639v-69.604c0-4.142-3.357-7.5-7.5-7.5s-7.5 3.358-7.5 7.5v69.604h-53.695v-231.479h53.695v126.875c0 4.142 3.357 7.5 7.5 7.5s7.5-3.358 7.5-7.5v-126.875h6.639c4.143 0 7.5-3.358 7.5-7.5v-24.825h47.63v24.825c0 4.142 3.357 7.5 7.5 7.5h6.642z"/><path d="m256 103.895c19.453 0 35.279-15.827 35.279-35.28s-15.826-35.28-35.279-35.28-35.279 15.826-35.279 35.279 15.826 35.281 35.279 35.281zm0-55.56c11.182 0 20.279 9.097 20.279 20.279s-9.098 20.28-20.279 20.28-20.279-9.098-20.279-20.28 9.097-20.279 20.279-20.279z"/><path d="m316.609 69.549h10.102c4.143 0 7.5-3.358 7.5-7.5s-3.357-7.5-7.5-7.5h-10.102c-4.143 0-7.5 3.358-7.5 7.5s3.358 7.5 7.5 7.5z"/><path d="m185.289 69.549h10.102c4.143 0 7.5-3.358 7.5-7.5s-3.357-7.5-7.5-7.5h-10.102c-4.143 0-7.5 3.358-7.5 7.5s3.357 7.5 7.5 7.5z"/><path d="m316.609 100.359h10.102c4.143 0 7.5-3.358 7.5-7.5s-3.357-7.5-7.5-7.5h-10.102c-4.143 0-7.5 3.358-7.5 7.5s3.358 7.5 7.5 7.5z"/><path d="m185.289 100.359h10.102c4.143 0 7.5-3.358 7.5-7.5s-3.357-7.5-7.5-7.5h-10.102c-4.143 0-7.5 3.358-7.5 7.5s3.357 7.5 7.5 7.5z"/></g></g></svg>